#!OML:ASF H:\ManfredETheater\Project 1\Capture day 1\Session 1\subject.ASF
:FULLY-SPECIFIED
:DEGREES
166
root 0.0103452 17.3135 -21.9539 -187.657 15.9246 -182.943
lowerback 12.399 -1.83188 -1.15078
upperback 0.582079 -2.19489 3.39325
thorax -6.16591 -0.92055 4.61524
lowerneck -16.873 3.52049 2.7525
upperneck 15.5649 5.61974 -6.80806
head 7.86888 2.2595 -2.03491
rclavicle -5.32122e-014 -1.11319e-014
rhumerus -65.4974 -30.5776 -42.7525
rradius 30.4112
rwrist 1.66675
rhand -22.232 -16.9953
rfingers 7.12502
rthumb 4.18475 -46.9339
lclavicle -5.32122e-014 -1.11319e-014
lhumerus -52.4777 18.002 57.1772
lradius 55.3023
lwrist -3.15861
lhand -18.1185 8.64822
lfingers 7.12502
lthumb 8.15594 38.4708
rfemur -19.8821 -8.61903 14.4028
rtibia 58.6076
rfoot -18.1192 -11.8703
rtoes -39.4018
lfemur -25.6449 -1.77571 -19.1268
ltibia 42.9377
lfoot -7.6005 -7.65481
ltoes -0.848644
167
root 0.0160009 17.3546 -22.0286 -187.34 16.1965 -182.97
lowerback 12.2121 -1.78289 -1.10338
upperback 0.593078 -2.13154 3.35302
thorax -6.05836 -0.895639 4.52546
lowerneck -16.8081 3.56154 2.77666
upperneck 15.6111 5.68926 -6.86156
head 7.87896 2.29105 -2.04876
rclavicle -2.88238e-015 4.77083e-014
rhumerus -64.7004 -30.0512 -43.4439
rradius 31.0949
rwrist 0.952295
rhand -22.2383 -16.9332
rfingers 7.12502
rthumb 4.17865 -46.8719
lclavicle -2.88238e-015 4.77083e-014
lhumerus -52.8588 18.3151 57.7482
lradius 54.4248
lwrist -3.78549
lhand -17.5269 8.15328
lfingers 7.12502
lthumb 8.72694 37.9529
rfemur -19.6688 -8.45668 14.4381
rtibia 56.7948
rfoot -18.0558 -11.0802
rtoes -39.9012
lfemur -25.4237 -1.76656 -19.1594
ltibia 42.5257
lfoot -7.72964 -7.34104
ltoes -0.929629
168
root 0.0229526 17.3922 -22.1013 -187.042 16.4405 -182.993
lowerback 12.0312 -1.73789 -1.06117
upperback 0.607739 -2.07381 3.31449
thorax -5.94936 -0.873058 4.44198
lowerneck -16.755 3.5982 2.79624
upperneck 15.676 5.75576 -6.9149
head 7.89709 2.32049 -2.06205
rclavicle 1.2424e-015 -4.77083e-015
rhumerus -63.9001 -29.5068 -44.152
rradius 31.8234
rwrist 0.227909
rhand -22.2636 -16.8469
rfingers 7.12502
rthumb 4.15419 -46.7861
lclavicle 1.2424e-015 -4.77083e-015
lhumerus -53.182 18.6259 58.3326
lradius 53.548
lwrist -4.5201
lhand -16.9735 7.66679
lfingers 7.12502
lthumb 9.26094 37.4434
rfemur -19.406 -8.33127 14.4627
rtibia 55.0474
rfoot -17.8022 -10.2541
rtoes -40.0141
lfemur -25.2156 -1.76034 -19.189
ltibia 42.1512
lfoot -7.86507 -7.05628
ltoes -0.983342
169
root 0.0312226 17.4266 -22.1719 -186.762 16.6553 -183.018
lowerback 11.8553 -1.69624 -1.02759
upperback 0.621557 -2.02167 3.27576
thorax -5.84317 -0.852783 4.3648
lowerneck -16.7015 3.62988 2.8097
upperneck 15.7554 5.81761 -6.96277
head 7.91938 2.3478 -2.07311
rclavicle 1.11816e-014 2.54444e-014
rhumerus -63.1064 -28.9346 -44.8752
rradius 32.598
rwrist -0.506472
rhand -22.3102 -16.7454
rfingers 7.12502
rthumb 4.10921 -46.6855
lclavicle 1.11816e-014 2.54444e-014
lhumerus -53.4554 18.9215 58.9296
lradius 52.6826
lwrist -5.33718
lhand -16.4667 7.17766
lfingers 7.12502
lthumb 9.7499 36.932
rfemur -19.1006 -8.25361 14.4778
rtibia 53.3927
rfoot -17.3417 -9.56198
rtoes -39.7893
lfemur -25.0217 -1.76269 -19.2204
ltibia 41.8122
lfoot -8.00614 -6.79531
ltoes -1.01557
170
root 0.0407819 17.4577 -22.2403 -186.499 16.841 -183.05
lowerback 11.6883 -1.65696 -1.0096
upperback 0.63274 -1.97501 3.23471
thorax -5.74373 -0.834631 4.29579
lowerneck -16.643 3.65787 2.81878
upperneck 15.8406 5.87546 -7.00561
head 7.94227 2.37355 -2.08233
rclavicle -1.26228e-014 -3.18055e-015
rhumerus -62.3304 -28.3418 -45.6023
rradius 33.4258
rwrist -1.23901
rhand -22.3752 -16.635
rfingers 7.12502
rthumb 4.04642 -46.5763
lclavicle -1.26228e-014 -3.18055e-015
lhumerus -53.6812 19.1979 59.5367
lradius 51.8396
lwrist -6.20421
lhand -16.0123 6.6773
lfingers 7.12502
lthumb 10.1883 36.4106
rfemur -18.7592 -8.23189 14.4818
rtibia 51.8583
rfoot -16.7384 -9.07058
rtoes -39.2057
lfemur -24.8446 -1.77676 -19.2598
ltibia 41.5062
lfoot -8.15072 -6.55377
ltoes -1.02127
171
root 0.051475 17.4861 -22.3063 -186.249 16.9978 -183.083
lowerback 11.529 -1.6211 -0.996832
upperback 0.640008 -1.9337 3.19146
thorax -5.65211 -0.818793 4.22905
lowerneck -16.5725 3.68254 2.82356
upperneck 15.9253 5.92884 -7.04125
head 7.96225 2.39797 -2.08915
rclavicle -2.5196e-014 -1.59028e-014
rhumerus -61.5806 -27.7422 -46.3163
rradius 34.2995
rwrist -1.95072
rhand -22.4556 -16.5314
rfingers 7.12502
rthumb 3.96878 -46.4741
lclavicle -2.5196e-014 -1.59028e-014
lhumerus -53.8559 19.4547 60.1477
lradius 51.0181
lwrist -7.10233
lhand -15.6113 6.14508
lfingers 7.12502
lthumb 10.5751 35.859
rfemur -18.3846 -8.26582 14.486
rtibia 50.4611
rfoot -16.1066 -8.71247
rtoes -38.2306
lfemur -24.6836 -1.80733 -19.3001
ltibia 41.2288
lfoot -8.29637 -6.32737
ltoes -1.00727
172
root 0.063215 17.5123 -22.3697 -186.004 17.1359 -183.119
lowerback 11.3752 -1.58603 -0.992953
upperback 0.643822 -1.89482 3.14557
thorax -5.56678 -0.803833 4.1656
lowerneck -16.5056 3.70558 2.83442
upperneck 16.0134 5.97971 -7.08052
head 7.98421 2.42111 -2.09846
rclavicle -2.04748e-014 -1.59028e-015
rhumerus -60.8553 -27.1419 -47.0194
rradius 35.2219
rwrist -2.63145
rhand -22.5554 -16.4177
rfingers 7.12502
rthumb 3.87242 -46.3622
lclavicle -2.04748e-014 -1.59028e-015
lhumerus -53.9787 19.7037 60.7541
lradius 50.2251
lwrist -8.01468
lhand -15.2578 5.56881
lfingers 7.12502
lthumb 10.9161 35.2651
rfemur -17.9912 -8.33384 14.4927
rtibia 49.2036
rfoot -15.5452 -8.45934
rtoes -36.9584
lfemur -24.545 -1.85086 -19.3415
ltibia 40.9768
lfoot -8.44129 -6.10878
ltoes -0.979856
173
root 0.0757086 17.5367 -22.4307 -185.765 17.261 -183.158
lowerback 11.224 -1.54995 -0.989989
upperback 0.644185 -1.85496 3.09643
thorax -5.48656 -0.788306 4.09957
lowerneck -16.4341 3.72749 2.85168
upperneck 16.0995 6.02875 -7.12508
head 8.00502 2.44351 -2.11086
rclavicle -2.81777e-014 4.6118e-014
rhumerus -60.1541 -26.5442 -47.7151
rradius 36.1916
rwrist -3.32087
rhand -22.7212 -16.3306
rfingers 7.12502
rthumb 3.71238 -46.278
lclavicle -2.81777e-014 4.6118e-014
lhumerus -54.0525 19.9455 61.3529
lradius 49.4663
lwrist -8.92168
lhand -14.9463 4.96885
lfingers 7.12502
lthumb 11.2165 34.649
rfemur -17.5753 -8.41483 14.5011
rtibia 48.0681
rfoot -15.134 -8.31976
rtoes -35.562
lfemur -24.4246 -1.90679 -19.3824
ltibia 40.747
lfoot -8.58672 -5.89334
ltoes -0.948065
174
root 0.0887502 17.5597 -22.489 -185.522 17.3926 -183.185
lowerback 11.0806 -1.50623 -0.974055
upperback 0.635584 -1.80314 3.04781
thorax -5.42145 -0.766839 4.02578
lowerneck -16.3537 3.74482 2.87236
upperneck 16.1833 6.07159 -7.17235
head 8.02334 2.46329 -2.1256
rclavicle 2.61899e-014 -3.02153e-014
rhumerus -59.4985 -25.9602 -48.3728
rradius 37.2057
rwrist -3.94442
rhand -22.8894 -16.2361
rfingers 7.12502
rthumb 3.54988 -46.1863
lclavicle 2.61899e-014 -3.02153e-014
lhumerus -54.083 20.1764 61.9419
lradius 48.7479
lwrist -9.80411
lhand -14.6712 4.35621
lfingers 7.12502
lthumb 11.4818 34.0218
rfemur -17.1478 -8.46567 14.5281
rtibia 47.0213
rfoot -14.9045 -8.25484
rtoes -34.1618
lfemur -24.3275 -1.96528 -19.4054
ltibia 40.5392
lfoot -8.73227 -5.67312
ltoes -0.91281
175
root 0.102007 17.5813 -22.5448 -185.275 17.5387 -183.207
lowerback 10.9402 -1.44978 -0.944738
upperback 0.616017 -1.73285 2.99891
thorax -5.37116 -0.736329 3.94206
lowerneck -16.2505 3.75324 2.8816
upperneck 16.2601 6.10389 -7.21239
head 8.03413 2.47893 -2.13766
rclavicle 2.99171e-014 0
rhumerus -58.8937 -25.4087 -48.9699
rradius 38.2436
rwrist -4.49664
rhand -23.072 -16.1065
rfingers 7.12502
rthumb 3.37356 -46.0596
lclavicle 2.99171e-014 0
lhumerus -54.0787 20.3869 62.529
lradius 48.0797
lwrist -10.6496
lhand -14.4389 3.76467
lfingers 7.12502
lthumb 11.7059 33.4176
rfemur -16.7077 -8.4654 14.566
rtibia 46.0213
rfoot -14.8551 -8.21421
rtoes -32.8801
lfemur -24.2526 -2.02133 -19.4172
ltibia 40.355
lfoot -8.88093 -5.44329
ltoes -0.883701
176
root 0.115361 17.6016 -22.5982 -185.021 17.7048 -183.214
lowerback 10.8064 -1.38202 -0.895848
upperback 0.585225 -1.64473 2.95401
thorax -5.33789 -0.697024 3.84968
lowerneck -16.1344 3.75534 2.88311
upperneck 16.3387 6.12949 -7.24796
head 8.04249 2.49187 -2.14795
rclavicle -2.5842e-015 3.81667e-014
rhumerus -58.3318 -24.8761 -49.5256
rradius 39.3126
rwrist -4.99546
rhand -23.2791 -15.9708
rfingers 7.12502
rthumb 3.17353 -45.9269
lclavicle -2.5842e-015 3.81667e-014
lhumerus -54.0445 20.5769 63.1148
lradius 47.4591
lwrist -11.4383
lhand -14.2595 3.21281
lfingers 7.12502
lthumb 11.8789 32.8558
rfemur -16.2552 -8.38653 14.6236
rtibia 45.0307
rfoot -14.962 -8.20797
rtoes -31.8414
lfemur -24.202 -2.07117 -19.4064
ltibia 40.1984
lfoot -9.03472 -5.2039
ltoes -0.85734
177
root 0.12859 17.6204 -22.6496 -184.759 17.8973 -183.204
lowerback 10.6802 -1.30433 -0.826353
upperback 0.547608 -1.54051 2.91167
thorax -5.31735 -0.649898 3.74674
lowerneck -16.0266 3.7553 2.88815
upperneck 16.4241 6.1513 -7.2811
head 8.05431 2.50315 -2.1584
rclavicle 1.95306e-014 3.65764e-014
rhumerus -57.8057 -24.3951 -50.0126
rradius 40.3705
rwrist -5.34901
rhand -23.44 -15.737
rfingers 7.12502
rthumb 3.01818 -45.6954
lclavicle 1.95306e-014 3.65764e-014
lhumerus -53.98 20.7482 63.6985
lradius 46.8933
lwrist -12.1491
lhand -14.1344 2.73392
lfingers 7.12502
lthumb 11.9995 32.3699
rfemur -15.7976 -8.22043 14.7026
rtibia 44.0268
rfoot -15.1554 -8.25421
rtoes -31.1768
lfemur -24.1752 -2.10858 -19.3721
ltibia 40.0722
lfoot -9.19641 -4.95525
ltoes -0.836493
